<?xml version="1.0" standalone="no"?>
<!DOCTYPE svg PUBLIC "-//W3C//DTD SVG 20010904//EN"
 "http://www.w3.org/TR/2001/REC-SVG-20010904/DTD/svg10.dtd">
<svg version="1.0" xmlns="http://www.w3.org/2000/svg"
 width="1009.000000pt" height="634.000000pt" viewBox="0 0 1009.000000 634.000000"
 preserveAspectRatio="xMidYMid meet">

<g transform="translate(0.000000,634.000000) scale(0.100000,-0.100000)"
fill="#000000" stroke="none">
<path d="M6950 5603 c-120 -20 -330 -136 -450 -248 -44 -41 -177 -144 -232
-180 -42 -26 -68 -76 -68 -129 l0 -46 -77 39 c-97 48 -339 141 -455 175 -139
40 -275 56 -484 56 -436 0 -632 -51 -1082 -279 l-214 -109 -46 35 c-26 20 -76
61 -112 92 -213 187 -270 219 -541 305 -337 106 -344 107 -774 113 -312 4
-373 2 -389 -10 -32 -23 -13 -43 86 -91 106 -52 363 -122 571 -156 71 -11 152
-30 180 -40 68 -25 145 -94 201 -178 57 -86 102 -113 332 -200 l179 -68 9 -36
c8 -33 6 -41 -36 -100 -100 -140 -135 -242 -149 -428 -22 -314 -22 -339 0
-475 31 -196 88 -326 175 -403 42 -36 44 -42 15 -42 -30 0 -162 -46 -249 -87
-65 -31 -96 -56 -228 -187 -121 -119 -174 -180 -251 -291 -54 -77 -106 -156
-116 -175 -25 -49 -192 -559 -210 -639 -7 -36 -16 -88 -20 -116 -9 -72 -44
-211 -67 -264 -11 -25 -32 -102 -48 -171 -20 -86 -44 -157 -78 -230 -27 -58
-60 -136 -72 -175 -13 -38 -47 -119 -77 -179 -29 -60 -53 -114 -53 -120 -1
-15 -252 -132 -323 -150 -61 -15 -97 -39 -97 -64 0 -8 13 -42 30 -77 32 -67
75 -106 200 -180 95 -56 134 -57 355 -6 333 77 428 111 478 171 36 42 42 86
23 161 -23 88 -38 102 -101 96 -27 -2 -59 -8 -70 -12 -19 -8 -19 -7 -4 11 33
40 61 157 75 316 8 87 18 177 24 200 5 24 10 81 10 128 0 104 27 236 73 361
19 52 47 132 62 179 41 126 144 322 221 420 106 133 318 339 397 384 65 37 86
66 49 66 -44 0 -152 -80 -278 -205 -257 -256 -345 -400 -467 -765 -78 -231
-97 -314 -97 -412 0 -40 -6 -109 -14 -153 -8 -44 -17 -134 -21 -200 -8 -129
-39 -254 -75 -304 -11 -16 -20 -41 -20 -55 0 -31 27 -35 83 -11 59 25 86 20
101 -17 57 -138 6 -199 -221 -261 -153 -42 -373 -90 -430 -95 -45 -3 -60 1
-117 32 -112 62 -172 113 -199 169 -23 47 -24 53 -9 64 8 7 32 16 51 19 20 3
97 35 171 69 174 82 209 91 256 69 27 -13 38 -14 47 -5 17 18 -24 49 -74 57
-22 4 -39 11 -39 16 0 5 24 57 54 116 30 59 63 136 74 172 11 36 40 108 65
160 25 53 55 137 67 190 12 52 39 147 61 211 21 64 46 161 54 215 28 169 44
231 137 509 97 291 93 284 212 455 82 119 319 372 403 431 52 36 183 89 291
117 l82 22 78 -39 c42 -21 122 -74 177 -116 119 -92 232 -149 335 -170 41 -8
102 -20 135 -27 70 -14 111 -47 101 -81 -14 -48 -18 -232 -7 -275 37 -133 220
-217 418 -192 86 11 484 141 602 197 122 58 188 143 221 283 17 73 17 73 50
49 23 -18 37 -21 72 -15 74 12 238 72 383 142 77 36 193 86 257 110 65 24 135
52 157 63 37 20 91 73 91 92 0 23 32 5 69 -38 45 -52 81 -121 137 -265 20 -51
40 -97 44 -103 14 -18 48 -139 59 -205 20 -126 33 -405 27 -583 -6 -181 -14
-281 -41 -507 -8 -69 -17 -215 -20 -325 -3 -110 -11 -238 -17 -285 -6 -47 -11
-149 -12 -228 -1 -126 1 -142 16 -142 23 0 30 40 27 157 -1 54 3 143 9 198 11
100 21 283 23 425 1 41 8 129 16 195 42 346 51 604 33 882 -18 264 -26 300
-139 570 -71 171 -84 195 -145 257 l-54 56 14 47 c8 27 43 156 77 288 59 227
62 246 62 355 0 101 -5 129 -34 230 -61 211 -136 356 -245 477 l-56 61 56 62
c31 35 69 84 85 111 17 27 43 53 62 62 63 29 316 101 637 181 198 50 261 58
328 47 50 -9 163 -16 200 -12 22 2 12 57 -20 106 -17 26 -76 92 -130 146 -125
125 -200 165 -333 179 -87 9 -475 12 -525 3z m592 -53 c26 -6 75 -29 109 -52
70 -44 200 -172 248 -242 l32 -46 -46 0 c-25 0 -77 5 -115 11 -89 15 -178 0
-490 -82 -295 -77 -486 -135 -523 -158 -15 -9 -44 -42 -65 -73 -20 -31 -58
-79 -84 -108 l-48 -52 -57 53 c-57 51 -193 146 -245 169 -23 11 -25 17 -21 54
8 67 23 95 72 128 69 47 170 126 221 173 114 106 299 210 415 235 56 12 539 4
597 -10z m-4811 -170 c133 -14 219 -34 459 -110 254 -80 282 -96 485 -270 54
-47 117 -98 139 -114 l40 -29 -34 -26 c-19 -14 -69 -58 -111 -98 -41 -40 -78
-73 -81 -73 -3 0 -9 12 -12 26 -8 29 -38 44 -240 119 -178 66 -223 95 -288
185 -104 145 -184 188 -418 225 -221 36 -580 141 -580 170 0 10 540 5 641 -5z
m2699 -160 c190 -24 445 -108 695 -230 161 -78 266 -144 348 -220 l58 -53 -21
-22 c-11 -12 -20 -27 -20 -33 0 -18 31 -14 53 6 18 16 21 15 70 -38 68 -73
126 -167 170 -270 69 -164 107 -315 107 -424 0 -78 -133 -613 -171 -689 -42
-82 -65 -99 -217 -152 -54 -18 -169 -68 -257 -110 -152 -73 -372 -155 -414
-155 -11 0 -30 13 -43 30 -90 115 -242 241 -318 264 -25 8 -69 28 -96 45 -92
56 -127 65 -264 64 -181 -1 -445 -41 -522 -80 -30 -15 -43 -49 -53 -148 -3
-33 -11 -84 -17 -113 -9 -49 -12 -53 -31 -47 -45 14 -135 35 -210 49 -104 20
-200 68 -333 169 -60 45 -137 95 -169 111 l-60 28 35 15 c19 8 58 17 85 20 47
5 53 3 100 -36 55 -45 85 -53 85 -21 0 11 -4 20 -9 20 -5 0 -28 16 -51 35 -65
55 -105 61 -192 30 -115 -41 -109 -41 -164 8 -89 81 -143 211 -170 416 -15
109 -16 144 -6 261 7 74 12 155 12 180 0 171 88 353 259 532 69 73 167 158
183 158 2 0 12 -16 22 -35 11 -21 27 -35 38 -35 23 0 23 17 -3 59 -11 18 -17
37 -12 42 4 4 109 59 233 122 303 152 529 228 735 247 126 11 442 11 535 0z
m-155 -2047 l50 -17 -67 -7 c-72 -8 -115 -24 -132 -51 -8 -13 -7 -21 1 -29 8
-8 19 -5 43 12 28 21 43 24 118 24 140 -1 186 -15 288 -94 96 -74 124 -114
124 -180 0 -58 -38 -160 -80 -217 -50 -66 -122 -103 -363 -188 -261 -92 -323
-107 -437 -107 -87 0 -100 3 -158 32 -83 43 -128 93 -138 154 -8 57 2 184 17
201 6 7 8 22 4 33 -3 11 1 62 9 113 9 51 20 129 26 173 6 44 14 83 19 88 21
21 232 61 436 81 72 7 189 -3 240 -21z"/>
<path d="M4168 4539 c-19 -10 -23 -57 -9 -93 5 -13 0 -33 -13 -57 -26 -48 -15
-92 26 -97 19 -2 27 -10 31 -31 6 -30 27 -44 51 -35 18 7 34 45 42 97 4 23 15
53 26 66 20 27 24 56 6 67 -6 4 -16 0 -22 -8 -10 -13 -15 -9 -31 24 -19 40
-58 78 -79 78 -6 0 -19 -5 -28 -11z m54 -81 c-10 -10 -15 -10 -22 2 -5 8 -10
24 -10 35 0 19 1 19 22 -3 18 -17 20 -24 10 -34z m28 -62 c0 -29 -26 -42 -33
-16 -5 18 9 40 25 40 4 0 8 -11 8 -24z m-73 -58 c-3 -8 -6 -5 -6 6 -1 11 2 17
5 13 3 -3 4 -12 1 -19z m75 -34 c-4 -23 -6 -24 -15 -9 -8 14 2 32 19 35 1 0
-1 -12 -4 -26z"/>
<path d="M6090 4413 c-13 -3 -35 -16 -47 -29 -19 -21 -26 -23 -44 -13 -15 8
-24 8 -32 0 -12 -12 27 -61 50 -61 7 0 13 -9 13 -21 0 -11 13 -34 29 -50 22
-22 39 -29 68 -29 82 0 136 52 136 132 0 59 -24 78 -92 77 -31 -1 -67 -4 -81
-6z m128 -74 c4 -47 -22 -78 -71 -86 -61 -9 -95 35 -66 88 14 27 45 39 94 36
38 -2 40 -4 43 -38z"/>
<path d="M4790 2765 c0 -17 28 -65 45 -77 5 -4 20 -8 33 -8 15 0 22 6 22 20 0
11 -6 20 -14 20 -8 0 -24 14 -36 30 -23 32 -50 40 -50 15z"/>
<path d="M5296 2758 c-3 -7 -5 -20 -5 -28 0 -8 -2 -26 -3 -40 -4 -33 25 -38
44 -8 11 17 12 32 6 56 -8 32 -35 44 -42 20z"/>
<path d="M6310 2473 c0 -11 7 -44 16 -74 14 -45 16 -83 11 -224 -10 -275 -48
-543 -113 -795 -14 -52 -34 -156 -45 -230 -10 -74 -23 -148 -28 -165 -5 -16
-12 -52 -16 -80 -13 -99 -38 -211 -56 -246 -10 -20 -26 -79 -35 -130 -28 -157
-68 -216 -186 -280 -44 -24 -114 -74 -155 -111 -110 -100 -119 -102 -458 -103
-154 0 -329 2 -390 5 -60 3 -234 1 -385 -3 -405 -13 -619 8 -759 73 -36 17
-157 92 -268 167 -184 123 -206 141 -242 196 -36 55 -39 64 -27 82 7 11 16 45
20 75 13 108 40 267 71 430 7 41 21 136 30 210 9 74 25 169 36 212 10 42 19
99 19 127 0 28 6 77 14 109 20 76 49 201 81 346 21 92 26 132 20 175 -3 31 -9
85 -13 121 -5 48 -11 65 -22 65 -12 0 -15 -14 -14 -70 1 -38 5 -93 9 -121 5
-37 2 -69 -13 -125 -11 -41 -23 -94 -27 -119 -4 -25 -15 -76 -25 -115 -37
-145 -50 -211 -50 -258 0 -27 -9 -83 -19 -125 -11 -43 -27 -138 -36 -212 -9
-74 -20 -154 -25 -177 -6 -23 -17 -86 -25 -140 -23 -149 -40 -209 -71 -255
-25 -36 -29 -51 -29 -112 0 -39 -6 -81 -13 -94 -11 -19 -10 -23 3 -28 8 -4 22
-1 30 6 11 9 20 1 51 -44 28 -43 59 -71 133 -120 53 -36 137 -92 186 -126 50
-33 131 -81 180 -106 165 -82 130 -79 1075 -79 l835 0 44 23 c23 13 71 49 105
81 33 31 101 79 149 106 126 71 175 140 196 280 7 44 23 107 36 140 24 59 49
168 61 256 3 24 12 69 19 99 7 30 19 98 25 150 6 52 27 160 46 240 19 80 41
172 49 205 24 103 66 513 66 650 1 144 -22 247 -54 253 -11 2 -17 -3 -17 -15z
m-3163 -1865 c-3 -7 -5 -2 -5 12 0 14 2 19 5 13 2 -7 2 -19 0 -25z"/>
<path d="M6436 2412 c-2 -4 1 -26 8 -48 8 -21 21 -124 30 -229 20 -218 39
-345 66 -436 31 -103 56 -394 70 -819 4 -129 13 -251 19 -270 6 -19 11 -73 11
-120 l0 -86 -58 -12 c-100 -21 -141 -83 -142 -214 0 -97 49 -133 217 -157 127
-19 234 -14 397 20 217 45 306 44 452 -5 99 -33 121 -37 194 -34 l83 3 32 59
c44 79 60 160 45 234 -24 114 -103 215 -190 241 -22 6 -102 16 -178 21 -76 5
-173 16 -217 25 -72 14 -85 13 -135 -1 -86 -25 -148 -80 -121 -107 8 -8 19 -3
40 17 17 16 53 36 81 46 45 15 58 16 123 4 39 -8 133 -18 209 -23 168 -12 208
-22 258 -67 108 -98 123 -263 35 -396 -23 -35 -26 -36 -57 -27 -18 5 -45 9
-60 9 -15 0 -76 17 -135 37 -98 34 -117 37 -213 37 -79 0 -143 -8 -256 -32
-170 -36 -260 -40 -396 -17 -125 20 -168 46 -168 100 0 114 28 166 100 185 50
13 68 5 72 -33 4 -39 31 -44 36 -7 2 13 11 30 20 37 16 12 16 14 -2 28 -16 12
-20 33 -26 138 -4 68 -11 130 -16 138 -5 8 -12 120 -15 249 -13 420 -45 783
-74 830 -13 22 -40 196 -55 360 -20 220 -22 240 -35 282 -11 40 -36 60 -49 40z"/>
</g>
</svg>
