<?xml version="1.0" standalone="no"?>
<!DOCTYPE svg PUBLIC "-//W3C//DTD SVG 20010904//EN"
 "http://www.w3.org/TR/2001/REC-SVG-20010904/DTD/svg10.dtd">
<svg version="1.0" xmlns="http://www.w3.org/2000/svg"
 width="1009.000000pt" height="634.000000pt" viewBox="0 0 1009.000000 634.000000"
 preserveAspectRatio="xMidYMid meet">
<metadata>
Created by potrace 1.16, written by Peter Selinger 2001-2019
</metadata>
<g transform="translate(0.000000,634.000000) scale(0.100000,-0.100000)"
fill="red" stroke="none">
<path d="M5462 4679 c-83 -16 -189 -92 -207 -149 -8 -25 -6 -25 -92 9 -371
152 -806 127 -1155 -66 l-76 -42 -49 48 c-79 79 -177 105 -322 86 -74 -10
-111 -25 -111 -43 0 -13 22 -22 92 -39 106 -26 178 -59 233 -107 l40 -33 -61
-65 c-128 -137 -200 -277 -229 -445 -19 -107 -16 -217 9 -320 58 -247 252
-475 522 -612 66 -34 82 -47 92 -75 14 -39 105 -110 179 -139 77 -31 221 -57
313 -57 211 0 431 86 485 189 9 18 46 43 117 78 279 140 473 366 534 620 22
91 22 275 0 366 -43 182 -169 368 -331 492 -41 32 -75 63 -75 70 0 26 146 151
203 175 58 24 75 51 41 64 -21 8 -99 6 -152 -5z m-562 -103 c385 -69 714 -328
820 -645 126 -377 -76 -788 -487 -995 -40 -20 -75 -36 -77 -36 -3 0 -10 18
-16 41 -44 162 -372 268 -660 213 -186 -35 -316 -113 -340 -205 -6 -22 -13
-39 -15 -39 -2 0 -35 17 -72 37 -466 252 -634 737 -393 1138 167 278 466 458
836 505 93 12 300 5 404 -14z m-104 -1461 c154 -26 294 -112 308 -189 28 -146
-222 -269 -514 -252 -166 9 -294 52 -369 125 -30 28 -40 46 -45 84 -7 42 -4
54 17 86 82 124 350 189 603 146z"/>
<path d="M5181 4233 c-52 -27 -76 -66 -76 -123 0 -33 6 -57 21 -77 94 -128
300 -34 255 117 -24 79 -126 122 -200 83z"/>
<path d="M4079 4221 c-126 -39 -147 -194 -37 -261 66 -40 163 -18 204 46 26
39 23 113 -5 152 -36 51 -108 79 -162 63z"/>
</g>
</svg>
