<?xml version="1.0" standalone="no"?>
<!DOCTYPE svg PUBLIC "-//W3C//DTD SVG 20010904//EN"
 "http://www.w3.org/TR/2001/REC-SVG-20010904/DTD/svg10.dtd">
<svg version="1.0" xmlns="http://www.w3.org/2000/svg"
 width="1009.000000pt" height="634.000000pt" viewBox="0 0 1009.000000 634.000000"
 preserveAspectRatio="xMidYMid meet">

<g transform="translate(0.000000,634.000000) scale(0.100000,-0.100000)"
fill="#000000" stroke="none">
<path d="M5485 4681 c-72 -10 -169 -63 -205 -113 -17 -22 -30 -47 -30 -54 0
-9 -22 -4 -72 17 -384 158 -839 133 -1176 -64 -35 -20 -64 -37 -66 -37 -1 0
-25 22 -53 49 -32 31 -71 57 -109 71 -52 20 -70 21 -158 15 -99 -6 -166 -24
-166 -45 0 -6 6 -12 13 -14 6 -2 50 -14 97 -26 103 -28 185 -68 224 -109 l29
-30 -52 -57 c-118 -129 -197 -270 -227 -406 -21 -95 -21 -262 0 -357 55 -248
259 -486 537 -626 41 -21 70 -43 74 -55 11 -35 64 -88 118 -119 224 -127 601
-113 795 29 24 17 52 46 63 65 15 26 44 46 119 84 353 177 552 466 552 801 0
269 -127 508 -366 688 l-68 52 68 70 c65 68 131 114 181 126 35 9 30 40 -8 48
-34 7 -40 6 -114 -3z m-625 -96 c520 -83 900 -456 900 -885 0 -311 -207 -609
-533 -770 -69 -34 -87 -33 -87 3 0 31 -32 80 -72 110 -194 148 -577 165 -805
36 -61 -35 -112 -90 -120 -130 -8 -41 -16 -43 -65 -18 -260 131 -445 348 -508
594 -110 431 213 888 730 1030 163 45 390 57 560 30z m25 -1489 c92 -29 177
-83 205 -129 59 -97 -25 -205 -204 -264 -73 -24 -96 -27 -236 -27 -174 -1
-228 8 -335 59 -96 46 -132 85 -140 155 -6 53 -5 57 30 97 42 50 150 105 235
122 30 6 64 13 75 15 11 3 81 3 155 2 112 -3 149 -8 215 -30z"/>
</g>
<g transform="translate(0.000000,634.000000) scale(0.100000,-0.100000)"
fill="#000000" stroke="none">
<path d="M5206 4240 c-40 -12 -84 -57 -95 -97 -19 -68 29 -144 102 -164 33 -9
45 -7 85 13 38 19 50 32 66 71 20 47 20 47 0 94 -28 67 -95 102 -158 83z"/>
<path d="M4043 4200 c-45 -27 -66 -64 -66 -114 0 -57 28 -102 81 -127 122 -60
241 67 178 189 -35 67 -127 92 -193 52z"/>
</g>
<g transform="translate(0.000000,634.000000) scale(0.100000,-0.100000)"
fill="#000000" stroke="none">
<path d="M4396 2948 c-9 -12 -16 -29 -16 -38 0 -9 7 -26 16 -38 31 -45 104
-17 104 40 0 53 -74 79 -104 36z m64 -23 c10 -12 10 -18 0 -29 -14 -18 -40
-10 -40 13 0 32 20 40 40 16z"/>
<path d="M4820 2940 c-24 -24 -25 -48 -4 -78 31 -45 104 -19 104 37 0 55 -61
80 -100 41z m65 -45 c0 -30 -39 -27 -43 3 -3 20 0 23 20 20 15 -2 23 -10 23
-23z"/>
</g>
</svg>
