<?xml version="1.0" standalone="no"?>
<!DOCTYPE svg PUBLIC "-//W3C//DTD SVG 20010904//EN"
 "http://www.w3.org/TR/2001/REC-SVG-20010904/DTD/svg10.dtd">
<svg version="1.0" xmlns="http://www.w3.org/2000/svg"
 width="960.000000pt" height="540.000000pt" viewBox="0 0 960.000000 540.000000"
 preserveAspectRatio="xMidYMid meet">

<g transform="translate(0.000000,540.000000) scale(0.100000,-0.100000)"
fill="#000000" stroke="none">
<path d="M3340 4824 c-191 -18 -416 -65 -586 -125 -129 -44 -374 -167 -489
-244 -831 -557 -1179 -1545 -874 -2480 52 -160 157 -373 255 -518 628 -928
1858 -1251 2871 -753 444 219 788 557 1003 986 663 1323 -175 2886 -1670 3115
-102 15 -418 27 -510 19z m386 -55 c420 -41 847 -211 1168 -467 699 -557 979
-1489 696 -2317 -185 -542 -573 -980 -1093 -1235 -1094 -538 -2422 -95 -2953
985 -283 577 -283 1250 0 1830 396 808 1274 1293 2182 1204z"/>
<path d="M2300 3405 l0 -165 471 0 c444 0 471 -1 466 -17 -3 -10 -20 -51 -38
-91 l-33 -72 49 -50 48 -49 -181 -280 c-100 -154 -182 -284 -182 -289 0 -5 27
-30 60 -56 33 -26 60 -49 60 -51 0 -2 -110 -227 -245 -501 -135 -274 -243
-504 -240 -512 3 -7 12 -12 20 -10 22 4 845 778 845 793 0 7 -29 37 -64 67
l-63 54 243 228 c134 126 244 234 244 241 0 7 -34 42 -75 79 -42 36 -76 67
-78 70 -1 2 108 103 242 225 l244 221 464 0 463 0 0 165 0 165 -1360 0 -1360
0 0 -165z m2670 0 l0 -115 -453 0 -453 0 -39 -41 c-22 -22 -140 -131 -262
-242 -123 -110 -223 -206 -223 -213 0 -7 15 -24 33 -40 17 -15 53 -46 79 -69
l46 -42 -244 -228 c-134 -126 -244 -234 -244 -241 0 -6 29 -36 64 -66 l64 -55
-257 -240 c-141 -132 -297 -279 -348 -327 l-92 -87 219 446 c121 246 220 450
220 454 0 4 -27 29 -60 55 -39 30 -58 51 -53 59 4 7 83 129 176 272 93 143
172 266 175 273 2 8 -17 36 -44 63 l-48 49 34 77 c18 43 42 93 52 111 l20 32
-491 0 -491 0 0 115 0 115 1310 0 1310 0 0 -115z"/>
</g>
</svg>
