<?xml version="1.0" standalone="no"?>
<!DOCTYPE svg PUBLIC "-//W3C//DTD SVG 20010904//EN"
 "http://www.w3.org/TR/2001/REC-SVG-20010904/DTD/svg10.dtd">
<svg version="1.0" xmlns="http://www.w3.org/2000/svg"
 width="241.000000pt" height="304.000000pt" viewBox="0 0 241.000000 304.000000"
 preserveAspectRatio="xMidYMid meet">
<metadata>
Created by potrace 1.16, written by Peter Selinger 2001-2019
</metadata>
<g transform="translate(0.000000,304.000000) scale(0.100000,-0.100000)"
fill="#000000" stroke="none">
<path d="M1082 2442 c-17 -16 -32 -36 -31 -44 0 -7 7 -4 16 10 15 21 21 22
180 22 192 0 193 0 193 -85 0 -35 4 -54 10 -50 6 3 10 14 10 23 0 9 7 30 15
46 22 41 19 52 -17 74 -28 17 -58 22 -188 28 l-155 7 -33 -31z"/>
<path d="M916 1683 c-29 -81 -25 -103 15 -103 11 0 19 -4 19 -10 0 -5 22 -10
49 -10 77 0 81 -8 81 -169 0 -121 2 -140 18 -154 10 -10 23 -17 29 -17 15 0
39 30 67 82 l25 47 -57 3 -57 3 -3 100 c-3 114 -10 125 -76 125 -79 0 -86 6
-86 66 0 53 -12 71 -24 37z"/>
<path d="M530 915 c0 -8 122 -85 180 -115 161 -81 372 -124 570 -117 107 4
218 22 235 38 5 5 18 9 28 9 10 0 35 7 55 16 106 48 182 86 188 96 4 6 3 9 -2
6 -154 -73 -174 -82 -242 -102 -87 -27 -199 -37 -352 -33 -168 5 -241 17 -365
59 -101 34 -139 52 -231 109 -35 21 -64 37 -64 34z"/>
<path d="M253 543 c-48 -4 -53 -6 -53 -29 0 -21 4 -24 40 -24 34 0 41 -4 46
-25 3 -14 4 -56 0 -93 -7 -80 -7 -64 0 -189 l6 -103 27 0 26 0 -4 81 c-2 52 1
89 9 104 8 15 10 34 5 52 -4 15 -8 62 -9 103 l-1 75 58 3 c49 3 57 6 57 22 0
16 -7 20 -34 20 -18 0 -53 2 -77 4 -24 2 -68 1 -96 -1z"/>
<path d="M995 503 c-4 -13 -23 -32 -41 -44 -34 -21 -35 -21 -14 -39 22 -19 28
-88 11 -132 -5 -13 -6 -65 -3 -116 5 -91 5 -92 31 -92 l26 0 0 177 0 178 40 6
40 5 -35 10 c-27 8 -36 17 -41 40 -6 27 -7 28 -14 7z"/>
<path d="M625 442 c-58 -30 -65 -48 -59 -139 4 -50 3 -88 -3 -95 -30 -38 -17
-128 17 -128 18 0 20 7 20 60 l0 60 55 0 54 0 7 -60 c6 -58 8 -60 35 -60 l29
0 1 78 c2 138 -3 194 -21 238 -28 64 -72 79 -135 46z"/>
<path d="M1368 433 c-6 -8 -32 -13 -64 -13 l-54 0 0 -88 c0 -83 -1 -89 -30
-120 -16 -18 -30 -37 -30 -43 0 -5 -9 -9 -20 -9 -15 0 -20 -7 -20 -28 0 -15
-5 -33 -12 -40 -9 -9 10 -12 85 -12 l97 0 0 53 c0 28 3 89 7 135 l6 82 48 0
c27 0 49 5 49 10 0 6 24 10 53 10 l54 0 7 -97 c8 -122 35 -203 67 -203 5 0 9
83 9 185 l0 185 -32 0 c-18 0 -73 2 -121 3 -63 2 -91 0 -99 -10z"/>
<path d="M2018 436 c-10 -7 -18 -18 -18 -25 0 -6 -7 -11 -16 -11 -37 0 -58
-66 -29 -90 10 -8 15 -31 15 -71 0 -46 -3 -59 -15 -59 -25 0 -19 -63 8 -88 13
-12 26 -22 30 -22 4 0 7 23 7 50 l0 50 55 0 55 0 0 -50 c0 -27 5 -50 10 -50 6
0 10 7 10 15 0 8 6 15 14 15 30 0 35 59 6 85 -26 23 -30 125 -5 125 10 0 15
11 15 35 0 24 -5 35 -15 35 -9 0 -15 9 -15 21 0 28 -27 48 -65 48 -16 0 -38
-6 -47 -13z"/>
<path d="M1750 255 l0 -185 28 0 27 0 1 95 c0 54 -4 95 -9 95 -10 0 -4 117 9
158 6 19 3 22 -25 22 l-31 0 0 -185z"/>
</g>
</svg>
