<?xml version="1.0" standalone="no"?>
<!DOCTYPE svg PUBLIC "-//W3C//DTD SVG 20010904//EN"
 "http://www.w3.org/TR/2001/REC-SVG-20010904/DTD/svg10.dtd">
<svg version="1.0" xmlns="http://www.w3.org/2000/svg"
 width="237.000000pt" height="300.000000pt" viewBox="0 0 237.000000 300.000000"
 preserveAspectRatio="xMidYMid meet">

<g transform="translate(0.000000,300.000000) scale(0.100000,-0.100000)"
fill="#000000" stroke="none">
<path d="M1085 2990 c-3 -5 -23 -10 -44 -10 -46 0 -181 -33 -265 -64 -371
-140 -651 -462 -736 -846 -15 -69 -32 -203 -32 -255 0 -52 17 -186 32 -255
119 -539 595 -920 1149 -920 330 0 621 125 846 362 94 99 103 111 161 208 78
130 117 233 149 385 19 92 17 369 -4 465 -48 223 -157 417 -325 585 -105 105
-172 154 -291 217 -113 59 -309 118 -390 118 -19 0 -37 5 -40 10 -3 6 -50 10
-105 10 -55 0 -102 -4 -105 -10z m340 -90 c22 -7 72 -22 110 -33 147 -42 309
-142 436 -267 152 -150 251 -329 305 -550 26 -106 26 -364 0 -470 -55 -225
-146 -391 -301 -545 -219 -219 -479 -327 -785 -327 -342 0 -659 153 -864 416
-76 97 -112 156 -153 256 -71 171 -87 252 -87 435 0 200 25 308 114 490 79
163 186 290 343 407 137 102 291 165 487 202 48 9 355 -2 395 -14z"/>
<path d="M1049 2449 c-26 -10 -44 -43 -89 -159 -11 -30 -27 -68 -34 -85 -7
-16 -22 -52 -32 -80 -10 -27 -24 -61 -31 -75 -31 -60 6 -120 73 -120 30 0 35
-3 29 -17 -4 -10 -11 -31 -16 -48 -5 -16 -13 -39 -18 -50 -39 -84 -81 -225
-76 -248 10 -40 45 -57 120 -57 l65 0 0 -145 c0 -142 1 -147 25 -170 28 -29
68 -32 93 -7 9 9 70 115 135 233 129 239 137 264 88 300 l-30 22 25 38 c13 21
24 41 24 43 0 3 29 58 65 124 36 65 65 126 65 134 0 32 -40 68 -75 68 -37 0
-54 15 -36 33 6 6 11 18 11 27 0 8 6 27 14 42 8 15 17 40 21 57 4 17 11 33 16
36 17 11 10 71 -12 91 -19 17 -40 19 -208 21 -104 1 -197 -2 -212 -8z m365
-67 c3 -5 -19 -74 -49 -153 -30 -79 -55 -145 -55 -146 0 -2 34 -3 76 -3 l76 0
-37 -67 c-21 -38 -51 -93 -67 -123 -17 -30 -50 -91 -74 -136 -24 -45 -44 -84
-44 -88 0 -3 23 -6 50 -6 28 0 50 -2 50 -4 0 -3 -47 -91 -105 -197 -58 -106
-105 -196 -105 -201 0 -5 -4 -6 -10 -3 -6 4 -10 70 -10 166 l0 159 -89 0 c-50
0 -92 3 -94 8 -3 4 8 41 23 82 15 41 46 125 68 185 22 61 43 118 47 128 6 15
0 17 -63 17 -39 0 -73 4 -76 8 -3 5 1 19 7 33 7 13 24 53 37 89 13 36 26 70
30 75 4 6 17 39 30 75 43 118 28 110 216 110 89 0 165 -4 168 -8z"/>
<path d="M980 553 c-20 -55 -36 -76 -73 -101 -40 -27 -44 -45 -9 -50 20 -3 22
-9 22 -70 0 -42 -5 -75 -14 -88 -12 -17 -12 -22 0 -39 21 -28 19 -153 -3 -177
-15 -17 -15 -18 13 -18 17 0 35 5 40 10 7 7 20 6 40 -5 57 -29 124 -14 149 34
15 29 21 112 9 124 -15 14 -34 -8 -34 -40 0 -79 -62 -126 -88 -68 -16 34 -15
104 2 134 11 21 11 30 -1 59 -8 19 -13 56 -11 85 3 51 4 52 32 50 35 -3 57 12
49 33 -3 9 -20 14 -44 14 l-39 0 0 70 c0 56 -3 70 -15 70 -9 0 -20 -12 -25
-27z"/>
<path d="M163 487 c1 -39 4 -46 16 -41 9 4 31 9 49 12 l32 4 0 -74 c0 -50 -5
-81 -16 -96 -14 -20 -14 -24 0 -44 21 -30 22 -166 1 -194 -8 -10 -15 -25 -15
-31 0 -18 55 -16 70 2 12 14 15 14 30 0 9 -8 29 -15 43 -15 l27 0 -20 40 c-25
49 -27 145 -4 193 15 31 15 36 0 65 -9 18 -16 55 -16 87 0 65 13 75 67 56 39
-15 52 -8 36 18 -7 12 -8 23 -1 35 5 10 7 20 4 23 -10 10 -130 10 -143 1 -7
-6 -18 -6 -25 -2 -7 5 -41 8 -74 9 l-62 0 1 -48z"/>
<path d="M605 445 c-47 -20 -68 -50 -67 -91 1 -20 4 -39 6 -42 3 -2 1 -13 -5
-23 -13 -26 6 -25 28 1 11 12 30 20 50 20 36 0 42 10 17 30 -22 19 -15 74 10
79 28 5 46 -26 46 -76 0 -49 -24 -78 -74 -89 -48 -10 -76 -33 -98 -81 -21 -45
-19 -58 21 -133 24 -45 130 -51 164 -9 l18 22 15 -21 c11 -16 25 -22 55 -22
l40 0 -16 30 c-19 37 -20 140 -1 166 12 16 12 21 1 34 -8 8 -18 43 -24 77 -12
77 -24 99 -64 123 -37 23 -79 24 -122 5z m85 -283 c0 -84 -13 -117 -45 -111
-24 5 -40 56 -31 103 6 32 49 86 68 86 5 0 8 -35 8 -78z"/>
<path d="M1335 435 c-31 -21 -43 -25 -55 -16 -31 23 -59 33 -74 28 -14 -6 -13
-11 4 -41 24 -39 28 -112 10 -155 -9 -22 -9 -34 0 -51 19 -35 14 -116 -9 -155
l-20 -35 34 0 c19 0 35 5 35 10 0 13 37 13 45 0 7 -11 69 -14 63 -2 -32 62
-40 90 -34 131 3 24 11 50 17 57 8 10 7 24 -5 54 -9 22 -16 55 -16 73 0 66 46
111 70 68 11 -22 -1 -61 -20 -61 -6 0 -10 -7 -10 -15 0 -9 9 -15 23 -15 12 0
31 -10 41 -22 l19 -22 13 45 c27 88 9 135 -56 145 -27 4 -44 0 -75 -21z"/>
<path d="M1506 451 c-3 -5 1 -22 10 -39 19 -39 21 -120 5 -160 -9 -22 -10 -36
-2 -50 6 -11 14 -46 17 -78 10 -83 44 -119 112 -119 40 0 56 5 76 24 l26 25
16 -22 c11 -15 25 -22 50 -22 19 0 34 2 34 3 0 2 -7 18 -16 36 -12 23 -14 48
-10 94 7 76 7 85 0 170 -4 52 -2 73 10 92 32 48 6 76 -35 39 -18 -16 -29 -15
-61 8 -30 21 -41 -2 -22 -47 12 -29 14 -55 10 -100 -8 -71 -8 -83 0 -153 4
-39 2 -59 -10 -77 -39 -60 -92 -10 -82 77 7 64 7 76 0 154 -4 44 -1 71 10 99
19 45 8 68 -22 47 -32 -23 -43 -24 -61 -8 -19 17 -47 21 -55 7z"/>
<path d="M1987 443 c-40 -17 -77 -72 -77 -115 1 -49 83 -148 123 -148 27 0 67
-41 67 -69 0 -46 -58 -79 -88 -49 -17 17 -15 57 3 64 29 12 15 27 -19 21 -29
-5 -37 -2 -51 19 -24 38 -35 29 -35 -31 0 -49 4 -60 34 -93 34 -36 36 -37 105
-37 66 0 73 2 103 33 29 28 33 39 33 86 0 49 -3 57 -45 102 -28 31 -55 51 -74
54 -68 11 -75 112 -9 118 43 4 62 -27 33 -53 -28 -26 -25 -38 9 -30 24 5 32 2
41 -14 19 -36 35 -24 37 27 3 60 -12 89 -59 113 -45 23 -80 23 -131 2z"/>
</g>
</svg>
