<?xml version="1.0" standalone="no"?>
<!DOCTYPE svg PUBLIC "-//W3C//DTD SVG 20010904//EN"
 "http://www.w3.org/TR/2001/REC-SVG-20010904/DTD/svg10.dtd">
<svg version="1.0" xmlns="http://www.w3.org/2000/svg"
 width="237.000000pt" height="300.000000pt" viewBox="0 0 237.000000 300.000000"
 preserveAspectRatio="xMidYMid meet">
<metadata>
Created by potrace 1.16, written by Peter Selinger 2001-2019
</metadata>
<g transform="translate(0.000000,300.000000) scale(0.100000,-0.100000)"
fill="#000000" stroke="none">
<path d="M973 2993 c-24 -2 -43 -8 -43 -12 0 -5 -25 -12 -55 -16 -30 -3 -55
-10 -55 -15 0 -4 -18 -11 -40 -15 -22 -4 -40 -11 -40 -15 0 -5 -15 -12 -32
-15 -18 -4 -35 -10 -38 -14 -3 -3 -27 -17 -55 -31 -27 -14 -52 -27 -55 -30 -3
-3 -31 -23 -63 -45 -59 -40 -209 -182 -237 -224 -13 -20 -32 -45 -58 -77 -5
-5 -20 -30 -33 -55 -13 -24 -26 -46 -29 -49 -3 -3 -15 -27 -28 -55 -13 -27
-27 -57 -32 -66 -5 -9 -12 -33 -15 -53 -4 -20 -11 -36 -15 -36 -5 0 -11 -24
-15 -52 -4 -29 -12 -59 -19 -67 -7 -10 -11 -85 -11 -236 0 -151 4 -226 11
-236 7 -8 15 -38 19 -66 4 -29 10 -53 15 -53 4 0 11 -16 15 -36 3 -20 10 -44
15 -53 5 -9 26 -52 47 -96 21 -44 43 -85 48 -91 6 -6 17 -22 25 -34 8 -12 24
-34 35 -49 11 -14 24 -32 30 -40 13 -17 157 -162 176 -176 8 -6 30 -22 49 -35
19 -14 39 -29 45 -35 7 -5 29 -19 51 -30 21 -11 41 -23 44 -27 3 -3 18 -10 33
-13 15 -4 27 -11 27 -16 0 -4 16 -11 35 -15 19 -3 35 -10 35 -15 0 -4 20 -11
45 -15 25 -3 45 -10 45 -14 0 -4 26 -11 58 -15 31 -4 63 -12 71 -18 19 -16
403 -16 422 0 8 6 40 14 72 18 31 4 57 11 57 15 0 4 20 11 45 14 25 4 45 11
45 15 0 5 16 12 35 15 19 4 35 11 35 15 0 5 12 12 27 16 15 3 30 10 33 13 3 4
23 16 44 27 22 11 44 25 51 30 6 6 26 21 45 35 19 13 41 29 49 35 19 14 163
159 176 176 6 8 19 26 30 40 11 15 27 37 35 49 8 12 20 28 25 34 6 6 27 47 48
91 21 44 42 87 47 96 5 9 12 33 15 53 4 20 11 36 15 36 5 0 12 25 15 55 4 30
11 58 16 61 12 7 12 471 0 478 -5 3 -12 31 -16 61 -3 30 -10 55 -15 55 -4 0
-11 16 -14 35 -4 19 -13 47 -21 62 -8 15 -15 34 -15 41 0 6 -4 12 -9 12 -5 0
-12 12 -16 27 -3 15 -10 30 -13 33 -4 3 -18 25 -31 49 -13 25 -28 50 -33 55
-25 31 -45 56 -58 76 -30 44 -147 157 -215 208 -39 28 -75 55 -80 59 -6 5 -33
19 -60 33 -28 14 -52 28 -55 31 -3 4 -20 10 -37 14 -18 3 -33 10 -33 15 0 4
-18 11 -40 15 -22 4 -40 10 -40 15 0 4 -24 11 -52 15 -29 4 -56 12 -60 18 -7
11 -388 19 -475 10z m407 -103 c3 -4 31 -10 62 -14 32 -4 60 -11 63 -16 3 -4
23 -11 45 -15 22 -4 40 -10 40 -15 0 -4 16 -11 35 -14 19 -4 35 -11 35 -16 0
-4 14 -11 30 -15 17 -4 30 -10 30 -15 0 -4 11 -11 25 -14 14 -4 25 -11 25 -16
0 -6 6 -10 13 -10 8 0 23 -8 35 -17 11 -10 35 -29 53 -43 57 -43 199 -191 199
-205 0 -6 40 -65 50 -75 6 -5 64 -125 94 -192 9 -20 16 -45 16 -55 0 -10 4
-23 10 -29 5 -5 13 -38 16 -72 4 -34 11 -62 15 -62 5 0 9 -74 9 -165 0 -91 -4
-165 -9 -165 -4 0 -11 -28 -15 -61 -3 -34 -10 -67 -15 -73 -5 -6 -12 -30 -16
-53 -4 -24 -10 -43 -15 -43 -4 0 -11 -16 -14 -35 -4 -19 -11 -35 -16 -35 -4 0
-11 -14 -15 -30 -4 -17 -11 -30 -16 -30 -5 0 -9 -6 -9 -14 0 -8 -6 -21 -13
-28 -7 -7 -24 -31 -37 -53 -63 -103 -161 -197 -326 -313 -30 -21 -95 -52 -108
-52 -9 0 -16 -4 -16 -10 0 -5 -16 -12 -35 -16 -19 -3 -35 -10 -35 -14 0 -5
-19 -11 -42 -15 -24 -4 -48 -11 -54 -16 -6 -5 -43 -12 -82 -15 -40 -4 -72 -11
-72 -15 0 -5 -58 -9 -130 -9 -71 0 -130 4 -130 9 0 4 -32 11 -72 15 -39 3 -76
10 -82 15 -6 5 -30 12 -53 16 -24 4 -43 10 -43 15 0 4 -16 11 -35 14 -19 4
-35 11 -35 16 0 6 -9 10 -19 10 -11 0 -26 6 -33 14 -8 7 -25 17 -38 21 -13 4
-28 11 -34 16 -6 5 -42 32 -81 60 -97 72 -138 112 -206 204 -33 44 -66 89 -74
100 -8 10 -15 25 -15 32 0 7 -4 13 -9 13 -5 0 -12 14 -16 30 -4 16 -11 30 -15
30 -5 0 -12 16 -16 35 -3 19 -10 35 -15 35 -4 0 -11 20 -15 45 -3 25 -10 45
-15 45 -4 0 -11 32 -15 70 -3 39 -11 70 -15 70 -12 0 -11 306 1 328 5 9 12 43
15 74 4 32 11 60 16 63 5 4 9 15 9 27 0 11 7 36 16 56 32 72 89 187 94 192 3
3 17 23 30 45 58 95 267 295 310 295 5 0 10 4 10 9 0 5 10 13 23 17 12 4 24 9
27 13 9 11 97 51 114 51 9 0 16 4 16 10 0 5 17 12 38 16 20 4 42 11 49 16 6 5
37 12 67 15 31 3 56 9 56 14 0 18 368 17 380 -1z"/>
<path d="M1050 2471 c0 -5 -9 -11 -20 -14 -19 -5 -70 -100 -70 -131 0 -9 -4
-16 -10 -16 -5 0 -10 -8 -10 -17 -1 -10 -9 -36 -20 -58 -11 -22 -19 -48 -20
-57 0 -10 -4 -18 -10 -18 -5 0 -10 -8 -10 -17 -1 -10 -9 -36 -20 -58 -42 -87
-17 -165 53 -165 l35 0 -10 -37 c-5 -21 -14 -42 -18 -48 -5 -5 -11 -27 -15
-47 -4 -21 -11 -38 -15 -38 -4 0 -11 -17 -15 -37 -4 -21 -11 -41 -16 -44 -6
-3 -13 -30 -16 -60 -4 -45 -2 -58 17 -81 20 -26 27 -28 96 -28 l74 0 0 -151
c0 -143 1 -153 22 -170 46 -41 133 -13 152 49 4 12 11 22 16 22 4 0 11 12 15
27 3 15 10 30 13 33 4 3 18 28 32 55 14 28 27 52 30 55 3 3 16 28 30 55 14 28
28 52 31 55 4 3 9 15 13 28 4 12 11 22 16 22 5 0 12 16 16 35 3 19 10 37 14
40 12 8 -22 74 -42 81 -14 4 -15 9 -6 30 6 13 15 24 19 24 4 0 10 14 14 30 4
17 10 30 15 30 4 0 11 11 14 25 4 14 10 25 15 25 5 0 12 14 16 30 4 17 11 30
16 30 5 0 9 6 9 14 0 8 7 22 16 31 25 24 30 99 10 130 -13 19 -25 25 -52 25
l-36 0 7 37 c4 21 10 40 15 43 4 3 11 21 15 40 4 19 12 38 17 41 17 11 14 105
-4 123 -9 9 -21 16 -27 16 -6 0 -11 5 -11 10 0 6 -73 10 -200 10 -110 0 -200
-4 -200 -9z m337 -141 c-6 -22 -14 -40 -18 -40 -4 0 -10 -18 -14 -40 -4 -22
-10 -40 -15 -40 -4 0 -11 -17 -15 -37 -4 -21 -10 -40 -15 -43 -4 -3 -10 -16
-11 -30 -4 -24 -2 -25 71 -31 41 -3 71 -6 65 -7 -5 -2 -21 -27 -35 -57 -14
-30 -28 -55 -32 -55 -3 0 -9 -13 -13 -30 -4 -16 -10 -30 -15 -30 -4 0 -11 -11
-14 -25 -4 -14 -10 -25 -15 -25 -5 0 -12 -13 -16 -30 -4 -17 -11 -30 -16 -30
-5 0 -9 -6 -9 -14 0 -8 -6 -21 -12 -28 -21 -22 -47 -76 -40 -82 3 -3 27 -6 54
-6 26 0 48 -4 48 -10 0 -5 -3 -10 -7 -10 -5 0 -19 -25 -33 -55 -14 -30 -28
-55 -32 -55 -5 0 -8 -6 -8 -14 0 -8 -6 -21 -14 -28 -7 -8 -17 -25 -21 -38 -4
-14 -11 -27 -14 -30 -4 -3 -21 -34 -39 -70 l-32 -65 0 158 0 157 -90 0 c-73 0
-90 3 -90 15 0 8 4 15 9 15 5 0 12 18 16 40 4 22 11 40 16 40 5 0 9 10 9 23 0
12 7 35 15 50 8 15 17 43 21 62 3 19 10 35 14 35 4 0 11 17 15 37 4 21 10 40
14 43 5 3 11 17 15 33 l6 27 -75 0 c-67 0 -91 9 -66 24 5 3 12 22 15 41 4 19
11 35 16 35 6 0 10 8 10 18 0 9 6 29 14 44 8 15 17 40 21 57 4 17 11 31 16 31
5 0 9 7 9 15 0 8 8 33 17 55 l18 40 156 0 156 0 -10 -40z"/>
<path d="M983 594 c-7 -3 -15 -21 -19 -40 -3 -19 -10 -34 -14 -34 -4 0 -10 -9
-13 -21 -3 -11 -15 -23 -26 -26 -12 -3 -21 -9 -21 -14 0 -5 -9 -9 -20 -9 -14
0 -20 -7 -20 -23 0 -28 17 -47 43 -47 18 0 19 -6 15 -62 -3 -35 -10 -64 -16
-66 -7 -2 -12 -14 -12 -27 0 -13 5 -25 12 -27 6 -2 13 -32 16 -67 4 -53 1 -67
-17 -91 -11 -16 -17 -31 -13 -34 4 -2 63 -5 129 -5 l122 -1 21 31 c30 41 39
139 15 159 -26 22 -49 1 -53 -49 -2 -22 -7 -41 -12 -41 -5 0 -10 -10 -12 -22
-4 -29 -28 -35 -35 -9 -3 12 -9 21 -14 21 -14 0 -10 54 6 88 16 31 12 107 -6
118 -5 3 -9 23 -9 44 0 39 0 39 43 42 39 3 42 5 45 36 2 23 -1 32 -12 32 -8 0
-17 6 -20 13 -5 10 -7 10 -12 0 -3 -7 -14 -13 -24 -13 -17 0 -20 9 -22 72 -3
73 -11 86 -45 72z"/>
<path d="M150 490 c0 -63 2 -70 20 -70 11 0 20 5 20 10 0 6 14 10 31 10 l32 0
-5 -65 c-4 -41 -12 -70 -22 -81 -16 -15 -16 -18 0 -42 9 -14 19 -53 22 -88 4
-51 1 -70 -17 -104 -11 -22 -21 -45 -21 -50 0 -15 97 -12 103 3 4 9 6 9 6 0 1
-16 87 -18 96 -3 3 6 -1 17 -9 26 -9 8 -16 24 -16 34 0 10 -4 22 -10 25 -13 8
-13 89 0 115 5 11 14 28 19 38 10 20 -7 92 -21 92 -5 0 -8 23 -8 50 l0 50 35
0 c19 0 35 -4 35 -10 0 -5 9 -10 20 -10 18 0 20 7 20 70 0 63 -2 70 -20 70
-11 0 -20 -4 -20 -10 0 -5 -13 -10 -30 -10 -16 0 -30 5 -30 10 0 14 -43 12
-59 -2 -11 -10 -14 -10 -18 0 -6 14 -49 16 -58 2 -3 -5 -17 -10 -31 -10 -13 0
-24 5 -24 10 0 6 -9 10 -20 10 -18 0 -20 -7 -20 -70z"/>
<path d="M580 452 c-14 -9 -27 -20 -28 -25 -2 -4 -10 -13 -17 -20 -7 -7 -14
-43 -17 -80 -4 -64 -3 -67 18 -67 13 0 30 8 40 17 9 10 28 16 41 15 13 -2 31
2 39 8 7 7 14 8 14 4 0 -14 -34 -32 -74 -39 -20 -4 -36 -11 -36 -15 0 -5 -9
-12 -20 -15 -12 -4 -23 -18 -27 -36 -3 -16 -12 -34 -19 -40 -18 -15 -18 -44
-1 -61 8 -7 17 -26 21 -42 12 -48 28 -56 108 -56 44 0 79 5 86 12 9 9 15 9 24
0 7 -7 34 -12 60 -12 41 0 48 3 48 19 0 11 -6 21 -12 23 -18 6 -18 150 0 155
15 6 16 40 0 45 -6 2 -13 31 -16 64 -3 32 -8 61 -11 64 -3 3 -11 19 -16 35 -6
17 -20 34 -33 40 -12 5 -22 13 -22 17 0 16 -124 7 -150 -10z"/>
<path d="M1188 456 c-22 -17 -22 -18 2 -46 27 -31 29 -154 3 -168 -16 -9 -16
-11 0 -27 23 -22 24 -146 2 -169 -29 -29 -19 -46 29 -46 26 0 47 5 50 13 5 9
7 9 12 0 7 -15 90 -18 99 -3 3 6 -3 22 -14 36 -26 33 -29 124 -6 148 17 17 20
43 5 48 -5 2 -12 17 -16 34 -6 30 -5 31 25 26 18 -2 36 -13 42 -23 5 -11 20
-19 34 -19 20 0 24 5 23 31 -1 17 4 34 10 38 6 3 12 22 14 41 3 19 5 -32 5
-115 0 -103 4 -150 12 -153 6 -2 11 -14 11 -26 0 -13 11 -35 25 -50 21 -23 31
-26 93 -26 50 0 73 4 82 15 12 14 15 14 30 0 22 -20 110 -21 110 -1 0 8 -8 22
-17 31 -21 21 -25 146 -5 152 15 6 16 40 0 45 -20 7 -16 141 5 162 9 10 17 28
17 42 0 21 -4 24 -40 24 -22 0 -40 -4 -40 -10 0 -5 -7 -10 -15 -10 -8 0 -15 5
-15 10 0 6 -15 10 -34 10 -24 0 -36 -5 -39 -17 -4 -17 -5 -17 -6 0 -1 13 -10
17 -40 17 -28 0 -41 -5 -46 -17 -6 -17 -7 -17 -19 0 -17 22 -81 23 -94 1 -8
-14 -10 -14 -21 0 -9 11 -30 16 -63 16 -45 0 -58 -5 -91 -36 -11 -11 -15 -9
-52 24 -18 16 -45 15 -67 -2z m522 -133 c0 -42 -4 -73 -10 -73 -5 0 -10 -11
-10 -25 0 -14 5 -25 10 -25 16 0 12 -109 -4 -126 -39 -39 -44 -18 -45 173 0
125 3 155 16 168 26 27 42 -8 43 -92z"/>
<path d="M1980 462 c0 -4 -10 -12 -22 -17 -13 -6 -27 -20 -33 -32 -5 -13 -13
-23 -17 -23 -5 0 -8 -26 -8 -57 1 -54 4 -61 40 -98 22 -22 40 -48 40 -57 0
-24 -17 -23 -25 2 -4 14 -15 20 -35 20 l-28 0 6 -67 c4 -54 10 -75 31 -100 26
-31 27 -32 119 -32 88 -1 94 0 120 26 24 24 27 34 27 99 0 68 -1 72 -32 98
-18 15 -33 34 -33 41 0 15 -22 25 -55 25 -30 0 -62 47 -48 69 13 21 53 27 53
8 0 -8 -9 -17 -19 -20 -14 -3 -18 -11 -14 -26 4 -16 13 -21 39 -21 21 0 42 -8
54 -20 11 -11 28 -20 39 -20 17 0 18 7 13 72 -5 72 -28 118 -59 118 -7 0 -13
5 -13 10 0 6 -30 10 -70 10 -38 0 -70 -3 -70 -8z"/>
</g>
</svg>
