<?xml version="1.0" standalone="no"?>
<!DOCTYPE svg PUBLIC "-//W3C//DTD SVG 20010904//EN"
 "http://www.w3.org/TR/2001/REC-SVG-20010904/DTD/svg10.dtd">
<svg version="1.0" xmlns="http://www.w3.org/2000/svg"
 width="1009.000000pt" height="634.000000pt" viewBox="0 0 1009.000000 634.000000"
 preserveAspectRatio="xMidYMid meet">

<g transform="translate(0.000000,634.000000) scale(0.100000,-0.100000)"
fill="#000000" stroke="none">
<path d="M4070 5064 c-496 -40 -907 -190 -1270 -462 -603 -451 -929 -1154
-871 -1878 43 -539 276 -1018 678 -1392 362 -337 777 -534 1286 -609 153 -22
501 -22 654 0 510 75 941 280 1297 618 476 451 718 1069 667 1705 -31 388
-159 743 -382 1055 -367 516 -930 853 -1575 944 -105 15 -397 26 -484 19z
m481 -60 c490 -68 924 -278 1278 -620 197 -190 305 -337 429 -582 77 -151 117
-262 162 -439 42 -165 54 -270 54 -478 0 -208 -12 -313 -54 -478 -45 -177 -85
-288 -162 -439 -124 -245 -232 -392 -429 -582 -356 -343 -781 -549 -1285 -622
-145 -21 -475 -24 -614 -5 -602 81 -1113 358 -1488 806 -270 322 -440 741
-473 1163 -41 528 132 1070 473 1477 407 487 952 761 1628 819 87 8 369 -4
481 -20z"/>
<path d="M4355 3924 c-770 -6 -1473 -12 -1562 -13 -156 -1 -163 -2 -163 -21 0
-20 6 -20 823 -15 452 3 884 7 960 10 75 3 137 3 137 1 0 -2 -300 -255 -667
-562 l-666 -559 592 -3 592 -2 -452 -448 c-248 -246 -455 -448 -459 -450 -4
-1 -17 37 -29 85 -43 172 -51 193 -72 193 -10 0 -19 -1 -19 -2 0 -2 18 -73 40
-158 22 -85 40 -162 40 -172 0 -9 4 -20 10 -23 5 -3 87 8 182 25 286 51 278
49 278 72 0 16 -5 19 -27 14 -75 -15 -366 -66 -368 -64 -1 2 210 212 469 468
259 256 472 473 474 482 3 17 -31 18 -569 20 l-572 3 636 534 c351 293 637
537 637 542 0 5 224 9 528 9 290 0 591 3 670 7 129 6 142 8 142 25 0 16 -9 18
-92 16 -51 -1 -723 -7 -1493 -14z"/>
</g>
</svg>
